<svg width="74" height="58" viewBox="0 0 74 58" fill="none" xmlns="http://www.w3.org/2000/svg">
<path d="M37.88 4.00537C37.4538 4.02989 37.0205 4.22986 36.6767 4.5996C35.9909 5.3372 35.9347 6.46718 36.5539 7.1331L36.6837 7.27647C36.902 7.51 37.0592 7.80134 37.1394 8.12107C37.2196 8.44081 37.2199 8.77764 37.1404 9.09756C37.0609 9.41749 36.9043 9.7092 36.6864 9.94324C36.4686 10.1773 36.1972 10.3454 35.8996 10.4306C35.6022 10.5189 35.2883 10.5203 34.9901 10.4347C34.692 10.3492 34.4205 10.1798 34.2034 9.9439L34.1964 9.92504L24.2717 20.6004L24.2927 20.6231C24.5978 20.9829 24.7617 21.4555 24.7501 21.9423C24.7386 22.429 24.5525 22.8921 24.2308 23.2346C23.909 23.5772 23.4766 23.7727 23.024 23.7803C22.5713 23.788 22.1334 23.607 21.8019 23.2754L21.6686 23.1358C21.0494 22.4699 19.9987 22.5284 19.3111 23.2679C18.6235 24.0055 18.5691 25.1374 19.1883 25.8033L28.1184 35.4053C28.7376 36.0693 29.7883 36.0089 30.476 35.2732C31.1636 34.5337 31.2179 33.4019 30.5987 32.7378L30.476 32.6058C30.2588 32.3714 30.1027 32.0797 30.0233 31.7601C29.9438 31.4404 29.9438 31.1039 30.0231 30.7842C30.1025 30.4645 30.2585 30.1728 30.4756 29.9383C30.6926 29.7038 30.9631 29.5347 31.26 29.4479C31.8652 29.2743 32.5125 29.4668 32.9563 29.9384L35.4366 27.269L37.2959 29.2706C37.6797 29.6841 38.1736 29.959 38.7092 30.057C39.2448 30.155 39.7955 30.0714 40.2849 29.8176L56.5209 47.2767C56.1919 47.6309 56.0074 48.1112 56.0077 48.6118C56.008 49.1124 56.1932 49.5923 56.5226 49.946C56.852 50.2997 57.2985 50.4983 57.764 50.4979C58.2295 50.4976 58.6758 50.2984 59.0047 49.9441L61.485 47.2767C61.6482 47.1018 61.7777 46.8939 61.8661 46.6651C61.9545 46.4362 62 46.1908 62 45.943C62 45.6952 61.9545 45.4498 61.8661 45.2209C61.7777 44.992 61.6482 44.7842 61.485 44.6093C61.3223 44.4337 61.1291 44.2944 60.9162 44.1993C60.7034 44.1043 60.4753 44.0554 60.2448 44.0554C60.0144 44.0554 59.7862 44.1043 59.5734 44.1993C59.3606 44.2944 59.1673 44.4337 59.0047 44.6093L42.7827 27.1257L42.7687 27.1445C43.0024 26.6192 43.0788 26.0287 42.9874 25.4547C42.896 24.8807 42.6412 24.3512 42.2583 23.9395L40.3989 21.9398L42.8775 19.2705C42.6608 19.036 42.5051 18.7445 42.4258 18.4251C42.3466 18.1057 42.3467 17.7695 42.4261 17.4501C42.5054 17.1308 42.6613 16.8393 42.878 16.605C43.0948 16.3706 43.365 16.2015 43.6615 16.1145C43.9563 16.0271 44.2673 16.0251 44.563 16.1085C44.8587 16.192 45.1286 16.3581 45.3455 16.5899L45.4823 16.737C46.0997 17.401 47.1522 17.3426 47.8381 16.605C48.5257 15.8655 48.58 14.7336 47.9608 14.0696L39.0325 4.46378C38.8814 4.30405 38.7006 4.18047 38.502 4.10114C38.3034 4.02182 38.0914 3.99042 37.88 4.00537ZM14.6312 46.4542C14.1295 46.4542 13.7541 46.8598 13.7541 47.3974V50.2271C12.7665 50.2271 12 51.0534 12 52.1136V54H31.2951V52.1136C31.2951 51.0534 30.5286 50.2271 29.541 50.2271V47.3974C29.541 46.8598 29.1656 46.4542 28.664 46.4542H14.6312Z" fill="black"/>
</svg>
