<svg width="50" height="50" viewBox="0 0 50 50" fill="none" xmlns="http://www.w3.org/2000/svg">
<path d="M43.9 8H6.1C5.5 8 5 8.4 5 9V32.6C5 33.2 5.5 33.6 6 33.6H43.8C44.4 33.6 44.8 33.1 44.8 32.6V9C45 8.4 44.5 8 43.9 8ZM15.9 36.7C15.9 37.3 16.3 37.7 16.9 37.7H19.2L15.9 49H18.1L19.4 44.5H30.4L31.7 49H33.9L30.6 37.7H32.9C33.5 37.7 33.9 37.3 33.9 36.7V35.2H15.9V36.7ZM21.5 37.7H28.6L30 42.4H20.1L21.5 37.7ZM31.1 5.5C31.1 5 30.6 4.5 30.1 4.5H26.3V1H23.8V4.5H20C19.4 4.5 19 5 19 5.5V6.5H31.1V5.5Z" fill="black"/>
</svg>
