<svg width="18" height="23" viewBox="0 0 18 23" fill="none" xmlns="http://www.w3.org/2000/svg">
<path d="M9 22.6771L2.636 16.3131C1.37734 15.0545 0.520187 13.4508 0.172928 11.705C-0.17433 9.95916 0.00390685 8.14957 0.685099 6.50504C1.36629 4.86051 2.51984 3.45491 3.99988 2.46598C5.47992 1.47706 7.21998 0.949219 9 0.949219C10.78 0.949219 12.5201 1.47706 14.0001 2.46598C15.4802 3.45491 16.6337 4.86051 17.3149 6.50504C17.9961 8.14957 18.1743 9.95916 17.8271 11.705C17.4798 13.4508 16.6227 15.0545 15.364 16.3131L9 22.6771ZM13.95 14.8991C14.9289 13.9201 15.5955 12.6729 15.8656 11.315C16.1356 9.95717 15.9969 8.54974 15.4671 7.2707C14.9373 5.99166 14.04 4.89845 12.8889 4.12931C11.7378 3.36017 10.3844 2.94965 9 2.94965C7.61557 2.94965 6.26222 3.36017 5.11109 4.12931C3.95996 4.89845 3.06275 5.99166 2.53292 7.2707C2.00308 8.54974 1.86442 9.95717 2.13445 11.315C2.40449 12.6729 3.07111 13.9201 4.05 14.8991L9 19.8491L13.95 14.8991ZM9 11.9491C8.46957 11.9491 7.96086 11.7384 7.58579 11.3634C7.21072 10.9883 7 10.4796 7 9.94914C7 9.41871 7.21072 8.91 7.58579 8.53493C7.96086 8.15985 8.46957 7.94914 9 7.94914C9.53044 7.94914 10.0391 8.15985 10.4142 8.53493C10.7893 8.91 11 9.41871 11 9.94914C11 10.4796 10.7893 10.9883 10.4142 11.3634C10.0391 11.7384 9.53044 11.9491 9 11.9491Z" fill="#101828"/>
</svg>
