<svg width="20" height="19" viewBox="0 0 20 19" fill="none" xmlns="http://www.w3.org/2000/svg">
<path d="M1 0.949219H19C19.2652 0.949219 19.5196 1.05458 19.7071 1.24211C19.8946 1.42965 20 1.684 20 1.94922V17.9492C20 18.2144 19.8946 18.4688 19.7071 18.6563C19.5196 18.8439 19.2652 18.9492 19 18.9492H1C0.734784 18.9492 0.48043 18.8439 0.292893 18.6563C0.105357 18.4688 0 18.2144 0 17.9492V1.94922C0 1.684 0.105357 1.42965 0.292893 1.24211C0.48043 1.05458 0.734784 0.949219 1 0.949219ZM18 5.18722L10.072 12.2872L2 5.16522V16.9492H18V5.18722ZM2.511 2.94922L10.061 9.61122L17.502 2.94922H2.511Z" fill="#101828"/>
</svg>
