<svg width="74" height="57" viewBox="0 0 74 57" fill="none" xmlns="http://www.w3.org/2000/svg">
<g clip-path="url(#clip0_122_2699)">
<path d="M53.4383 20.4929V23.5641C53.4383 23.9608 53.2802 24.3413 52.9989 24.6218C52.7175 24.9023 52.3359 25.0599 51.938 25.0599C51.5401 25.0599 51.1585 24.9023 50.8771 24.6218C50.5958 24.3413 50.4377 23.9608 50.4377 23.5641V20.4929H34.8646V23.5641C34.8646 23.9608 34.7065 24.3413 34.4251 24.6218C34.1438 24.9023 33.7622 25.0599 33.3643 25.0599C32.9664 25.0599 32.5848 24.9023 32.3034 24.6218C32.022 24.3413 31.864 23.9608 31.864 23.5641V20.4929H24.5325V53H62.02V20.4929H53.4383ZM54.4385 31.9502L40.6157 45.7408C40.3344 46.0209 39.9531 46.1782 39.5555 46.1782C39.1579 46.1782 38.7766 46.0209 38.4953 45.7408L31.1638 38.4317C30.8853 38.1499 30.7292 37.7703 30.7292 37.3747C30.7292 36.9791 30.8853 36.5994 31.1638 36.3177C31.3024 36.1778 31.4675 36.0668 31.6495 35.9909C31.8315 35.9151 32.0268 35.8761 32.224 35.8761C32.4213 35.8761 32.6166 35.9151 32.7986 35.9909C32.9806 36.0668 33.1456 36.1778 33.2843 36.3177L39.5555 42.5599L52.3281 29.8263C52.4668 29.6822 52.633 29.5672 52.8169 29.488C53.0008 29.4089 53.1987 29.3672 53.399 29.3654C53.5993 29.3635 53.798 29.4017 53.9833 29.4775C54.1686 29.5533 54.3369 29.6652 54.4782 29.8068C54.6195 29.9483 54.731 30.1166 54.8061 30.3017C54.8813 30.4868 54.9186 30.685 54.9158 30.8847C54.9131 31.0844 54.8703 31.2815 54.79 31.4645C54.7098 31.6474 54.5937 31.8126 54.4485 31.9502H54.4385ZM22.182 53L17.091 49.6895L12 53V20.4929H22.182V53ZM53.4383 14.7493V20.4929H50.4377V14.7493C50.4339 13.2107 49.973 11.7077 49.1133 10.4299C48.2535 9.15214 47.0333 8.15693 45.6067 7.56984C44.4248 7.08701 43.1419 6.90164 41.8711 7.0301C40.6004 7.15855 39.3809 7.59688 38.3203 8.30641C37.2596 9.01593 36.3905 9.97483 35.7896 11.0985C35.1887 12.2221 34.8744 13.476 34.8746 14.7493V20.4929H31.874V14.7493C31.8762 12.3406 32.6883 10.0021 34.1805 8.10775C35.6727 6.21334 37.7589 4.87238 40.1056 4.29919C40.9339 4.09803 41.7836 3.99758 42.6361 4.00004C45.4976 4.00004 48.2421 5.13191 50.2673 7.14722C52.2926 9.16254 53.433 11.8966 53.4383 14.7493Z" fill="#231F20"/>
<path d="M46.8667 21.9786C46.4688 21.9786 46.0872 21.821 45.8059 21.5405C45.5245 21.26 45.3664 20.8796 45.3664 20.4829V14.7493C45.3664 12.6918 44.5466 10.7185 43.0873 9.26367C41.628 7.80879 39.6487 6.99145 37.5849 6.99145C35.5211 6.99145 33.5418 7.80879 32.0825 9.26367C30.6232 10.7185 29.8033 12.6918 29.8033 14.7493V20.4829C29.8033 20.8796 29.6453 21.26 29.3639 21.5405C29.0825 21.821 28.7009 21.9786 28.303 21.9786C27.9051 21.9786 27.5235 21.821 27.2422 21.5405C26.9608 21.26 26.8027 20.8796 26.8027 20.4829V14.7493C26.8027 11.8984 27.9387 9.16428 29.9608 7.14839C31.9828 5.13251 34.7253 4 37.5849 4C40.4445 4 43.187 5.13251 45.209 7.14839C47.2311 9.16428 48.367 11.8984 48.367 14.7493V20.4829C48.367 20.8796 48.209 21.26 47.9276 21.5405C47.6463 21.821 47.2647 21.9786 46.8667 21.9786Z" fill="#231F20"/>
</g>
<defs>
<clipPath id="clip0_122_2699">
<rect width="50" height="49" fill="white" transform="translate(12 4)"/>
</clipPath>
</defs>
</svg>
